<?xml version="1.0" encoding="utf-8"?>
<!-- Generator: Adobe Illustrator 27.5.0, SVG Export Plug-In . SVG Version: 6.00 Build 0)  -->
<svg version="1.1" xmlns="http://www.w3.org/2000/svg" xmlns:xlink="http://www.w3.org/1999/xlink" x="0px" y="0px"
	 viewBox="0 0 500 500" style="enable-background:new 0 0 500 500;" xml:space="preserve">
<g id="BACKGROUND">
	<g>
		<g>
			<path style="fill:#F9F37F;" d="M450.14,246.795c-7.961,16.57-25.892,20.592-39.108,26.448
				c-13.216,5.857-14.089,31.158-33.069,37.659c-38.119,13.056-22.646,62.636-22.646,62.636s38.03,8.413,53.176,1.626
				c15.146-6.787,8.526-27.903,16.023-35.604c2.795-2.872,7.102-5.208,11.668-7.942l-9.797-9.974l18.575,3.971
				c4.563-3.773,8.543-8.62,10.53-15.599c1.96-6.883,2.337-11,3.232-15.056l-7.004-7.131l8.572,1.832
				c2.035-5.35,6.063-12.228,15.671-25.24C496.603,236.468,458.1,230.225,450.14,246.795z"/>
			<path style="fill:#CAC566;" d="M360.929,368.114c-0.046-0.007-0.094-0.021-0.139-0.042c-0.25-0.117-0.357-0.416-0.24-0.666
				c0.494-1.051,12.243-25.834,25.719-34.564c6.607-4.279,11.214-12.154,15.671-19.769c4.57-7.81,9.295-15.885,16.218-20.167
				c2.531-1.564,4.86-2.942,6.916-4.157c9.148-5.408,14.671-8.673,21.456-18.336c2.706-3.853,4.548-7.252,6.174-10.25
				c3.462-6.387,5.963-11.001,13.655-14.495c0.25-0.115,0.548-0.004,0.662,0.248c0.113,0.252,0.003,0.548-0.249,0.662
				c-7.385,3.355-9.82,7.846-13.189,14.061c-1.638,3.022-3.495,6.448-6.234,10.348c-6.909,9.839-12.501,13.145-21.765,18.622
				c-2.052,1.213-4.377,2.587-6.899,4.147c-6.712,4.15-11.372,12.116-15.88,19.82c-4.516,7.716-9.185,15.695-15.99,20.104
				c-13.237,8.575-25.237,33.895-25.357,34.15C361.359,368.037,361.142,368.146,360.929,368.114z"/>
			<path style="fill:#CAC566;" d="M405.017,309.227c-0.192-0.029-0.359-0.169-0.411-0.371c-0.069-0.267,0.093-0.54,0.361-0.609
				c1.684-0.43,41.299-10.37,49.327,5.984c0.122,0.247,0.02,0.547-0.228,0.669c-0.247,0.122-0.547,0.021-0.669-0.228
				c-7.672-15.628-47.776-5.56-48.181-5.455C405.148,309.234,405.082,309.237,405.017,309.227z"/>
			<path style="fill:#CAC566;" d="M418.53,362.054c-0.167-0.025-0.318-0.134-0.387-0.302c-7.755-18.632-48.11-8.906-48.516-8.806
				l-0.821,0.203l0.218-0.818c5.883-21.997-7.748-29.878-7.886-29.955c-0.242-0.134-0.329-0.438-0.194-0.68
				c0.134-0.242,0.442-0.331,0.68-0.194c0.143,0.08,14.109,8.151,8.575,30.281c5.997-1.366,41.318-8.553,48.867,9.583
				c0.106,0.256-0.014,0.548-0.269,0.654C418.71,362.057,418.618,362.067,418.53,362.054z"/>
			<path style="fill:#CAC566;" d="M406.689,306.543c-0.043-0.007-0.087-0.019-0.13-0.038c-0.252-0.112-0.366-0.407-0.253-0.66
				c7.197-16.179-1.435-27.658-1.524-27.773c-0.169-0.218-0.128-0.533,0.091-0.701c0.219-0.168,0.533-0.128,0.701,0.091
				c0.091,0.118,9.082,12.072,1.644,28.791C407.127,306.461,406.907,306.575,406.689,306.543z"/>
			<path style="fill:#CAC566;" d="M449.66,266.013l0.423-1.137c4.351-11.693-0.286-17.709-0.333-17.768
				c-0.171-0.216-0.137-0.53,0.078-0.703c0.215-0.171,0.528-0.138,0.702,0.076c0.202,0.251,4.776,6.119,0.866,17.685
				c3.416-1.302,14.545-4.84,24.774-0.201c0.251,0.114,0.363,0.41,0.248,0.662c-0.114,0.25-0.409,0.364-0.661,0.249
				c-11.793-5.35-24.867,0.568-24.996,0.628L449.66,266.013z"/>
		</g>
		<g>
			<path style="fill:#CAC566;" d="M349.636,407.253c0,0,44.5-51.152,99.537-45.371C449.173,361.883,423.802,406.444,349.636,407.253
				z"/>
			<path style="fill:#9C9850;" d="M354.407,405.227c-0.144-0.022-0.277-0.106-0.356-0.24c-0.141-0.238-0.062-0.544,0.176-0.685
				c0.601-0.355,60.473-35.588,94.842-42.908c0.272-0.06,0.536,0.115,0.593,0.384c0.058,0.27-0.115,0.536-0.384,0.593
				c-34.212,7.288-93.943,42.437-94.542,42.791C354.632,405.223,354.517,405.243,354.407,405.227z"/>
			<path style="fill:#9C9850;" d="M386.046,403.32c-0.023-0.004-0.046-0.009-0.069-0.015l-19.129-5.661l5.159-11.01
				c0.118-0.249,0.413-0.355,0.665-0.241c0.25,0.117,0.358,0.415,0.241,0.665l-4.666,9.958l18.013,5.33
				c0.265,0.078,0.416,0.357,0.338,0.621C386.527,403.209,386.288,403.356,386.046,403.32z"/>
			<path style="fill:#9C9850;" d="M404.748,397.182c-0.038-0.006-0.077-0.016-0.114-0.031l-20.92-8.481l3.581-12.088
				c0.079-0.265,0.365-0.406,0.621-0.338c0.265,0.078,0.416,0.356,0.338,0.621l-3.323,11.219l20.078,8.14
				c0.256,0.104,0.379,0.395,0.276,0.652C405.197,397.095,404.971,397.216,404.748,397.182z"/>
			<path style="fill:#9C9850;" d="M420.523,389.156c-0.046-0.007-0.093-0.021-0.138-0.041l-19.45-9.113l7.906-13.333
				c0.141-0.238,0.448-0.318,0.685-0.175c0.238,0.14,0.316,0.447,0.175,0.685l-7.343,12.385l18.451,8.645
				c0.25,0.117,0.358,0.415,0.241,0.665C420.953,389.078,420.736,389.188,420.523,389.156z"/>
			<path style="fill:#9C9850;" d="M434.986,378.503c-0.031-0.005-0.061-0.012-0.092-0.023l-17.12-5.961l4.564-9.512
				c0.118-0.25,0.414-0.359,0.667-0.234c0.249,0.119,0.354,0.417,0.234,0.667l-4.079,8.503l16.063,5.593
				c0.261,0.09,0.399,0.376,0.308,0.637C435.451,378.403,435.219,378.537,434.986,378.503z"/>
			<path style="fill:#9C9850;" d="M443.79,369.571c-0.03-0.004-0.059-0.012-0.089-0.021l-9.615-3.285l2.329-4.973
				c0.117-0.249,0.412-0.356,0.665-0.241c0.25,0.117,0.358,0.415,0.241,0.665l-1.856,3.963l8.559,2.924
				c0.261,0.089,0.4,0.374,0.312,0.635C444.257,369.47,444.023,369.606,443.79,369.571z"/>
		</g>
		<g>
			<path style="fill:#CAC566;" d="M362.477,325.443c0,0,21.767-61.137,72.829-75.228
				C435.306,250.215,428.28,298.791,362.477,325.443z"/>
			<path style="fill:#9C9850;" d="M365.838,321.996c-0.083-0.012-0.163-0.045-0.234-0.1c-0.218-0.17-0.256-0.485-0.086-0.702
				c0.411-0.526,41.444-52.854,69.513-71.396c0.23-0.153,0.541-0.09,0.693,0.141c0.152,0.231,0.089,0.541-0.142,0.693
				c-27.934,18.453-68.865,70.653-69.275,71.178C366.192,321.957,366.01,322.022,365.838,321.996z"/>
			<path style="fill:#9C9850;" d="M374.432,310.886l0.749-11.64c0.018-0.276,0.255-0.484,0.531-0.466
				c0.266,0.017,0.485,0.254,0.466,0.531l-0.675,10.48l17.89-1.547c0.279-0.027,0.517,0.18,0.541,0.455
				c0.024,0.275-0.18,0.517-0.455,0.541L374.432,310.886z"/>
			<path style="fill:#9C9850;" d="M386.327,296.991l-1.038-12.043c-0.024-0.275,0.18-0.517,0.455-0.541
				c0.277-0.03,0.518,0.18,0.541,0.455l0.96,11.139l20.717,0.234c0.266,0.002,0.498,0.228,0.494,0.505
				c-0.003,0.276-0.229,0.497-0.506,0.494L386.327,296.991z"/>
			<path style="fill:#9C9850;" d="M398.635,283.245l2.386-14.668c0.044-0.271,0.297-0.455,0.568-0.414
				c0.002,0,0.004,0.001,0.007,0.001c0.272,0.044,0.457,0.302,0.413,0.574l-2.21,13.579l19.44,1.251
				c0.265,0.019,0.485,0.254,0.467,0.531c-0.018,0.276-0.255,0.484-0.531,0.467L398.635,283.245z"/>
			<path style="fill:#9C9850;" d="M411.026,270.693l0.741-10.096c0.021-0.275,0.261-0.482,0.536-0.462
				c0.274,0.018,0.482,0.26,0.462,0.535l-0.66,8.979l16.245-0.631c0.269-0.01,0.508,0.203,0.519,0.48
				c0.011,0.276-0.204,0.509-0.481,0.519L411.026,270.693z"/>
			<path style="fill:#9C9850;" d="M423.373,259.416l0.339-5.269c0.017-0.275,0.255-0.485,0.531-0.467
				c0.264,0.01,0.484,0.255,0.467,0.531l-0.267,4.156l8.626-0.385c0.268-0.012,0.509,0.201,0.521,0.477
				c0.013,0.276-0.201,0.51-0.477,0.522L423.373,259.416z"/>
		</g>
		<g>
			<path style="fill:#CAC566;" d="M348.686,404.199c0,0,16.978-65.639,68.807-85.04C417.492,319.159,414.688,370.36,348.686,404.199
				z"/>
			<path style="fill:#9C9850;" d="M351.821,400.274c-0.069-0.01-0.136-0.035-0.197-0.075c-0.233-0.149-0.299-0.459-0.148-0.691
				c0.379-0.586,38.22-58.843,65.705-80.741c0.216-0.171,0.531-0.136,0.703,0.079c0.172,0.216,0.136,0.531-0.079,0.703
				c-27.359,21.797-65.111,79.917-65.489,80.501C352.205,400.221,352.008,400.302,351.821,400.274z"/>
			<path style="fill:#9C9850;" d="M359.797,387.916l-0.3-12.157c-0.007-0.276,0.211-0.505,0.487-0.512
				c0.273-0.014,0.505,0.21,0.512,0.487l0.273,10.993l18.497-3.274c0.271-0.052,0.532,0.133,0.579,0.405
				c0.048,0.272-0.133,0.531-0.405,0.579L359.797,387.916z"/>
			<path style="fill:#9C9850;" d="M370.883,372.354l-2.193-12.415c-0.048-0.272,0.133-0.532,0.405-0.579
				c0.273-0.051,0.532,0.133,0.579,0.405l2.036,11.523l21.599-1.681c0.281-0.02,0.516,0.185,0.538,0.46
				c0.021,0.276-0.185,0.516-0.46,0.538L370.883,372.354z"/>
			<path style="fill:#9C9850;" d="M382.419,356.909l1.121-15.46c0.02-0.275,0.26-0.482,0.535-0.463
				c0.253,0.014,0.483,0.258,0.463,0.535l-1.041,14.36l20.37-0.502c0.272-0.014,0.505,0.21,0.512,0.487
				c0.007,0.276-0.211,0.506-0.487,0.512L382.419,356.909z"/>
			<path style="fill:#9C9850;" d="M394.148,342.696l-0.165-10.55c-0.004-0.276,0.216-0.504,0.492-0.508
				c0.282-0.005,0.504,0.216,0.508,0.492l0.147,9.431l16.87-2.169c0.275-0.034,0.525,0.159,0.56,0.432
				c0.035,0.274-0.158,0.524-0.432,0.56L394.148,342.696z"/>
			<path style="fill:#9C9850;" d="M405.95,329.816l-0.135-5.49c-0.007-0.275,0.211-0.506,0.487-0.512
				c0.27-0.015,0.506,0.21,0.512,0.487l0.109,4.374l8.963-1.204c0.275-0.039,0.526,0.156,0.563,0.429
				c0.036,0.274-0.156,0.526-0.429,0.563L405.95,329.816z"/>
		</g>
	</g>
	<g>
		<g>
			<g>
				<path style="fill:#F9F37F;" d="M146.49,184.127c-14.62-8.863-10.747-30.086-20.685-37.365c-2.411-1.766-5.073-3.493-7.773-5.312
					l-5.851,2.932l1.786-5.758c-7.039-5.102-13.615-11.3-15.914-20.991c-0.448-1.891-1.353-3.574-2.568-5.022l-3.371,1.689
					l1.179-3.8c-9.845-7.751-29.742-4.771-19.943,17.112c2.905,6.488,4.864,11.335,6.188,15.184l9.475-0.559l-7.31,8.565
					c1.055,6.166-0.16,9.507,0.401,18.491c0.994,15.913,15.577,22.454,20.418,30.229c4.841,7.774-4.509,24.151,6.867,32.555
					c11.376,8.404,44.567,8.314,44.567,8.314S175.852,201.927,146.49,184.127z"/>
				<path style="fill:#CAC566;" d="M150.27,234.854c0.04,0.003,0.082,0,0.123-0.009c0.229-0.052,0.373-0.281,0.321-0.511
					c-0.22-0.965-5.496-23.734-15.128-33.451c-4.722-4.764-7.127-12.157-9.452-19.307c-2.385-7.333-4.851-14.915-9.836-19.738
					c-1.823-1.763-3.511-3.333-5.002-4.718c-6.633-6.165-10.637-9.887-14.529-19.166c-1.552-3.7-2.468-6.864-3.276-9.656
					c-1.721-5.946-2.965-10.243-8.733-14.55c-0.187-0.141-0.455-0.103-0.596,0.086c-0.14,0.189-0.102,0.456,0.087,0.596
					c5.539,4.136,6.749,8.317,8.424,14.104c0.814,2.814,1.737,6.003,3.309,9.749c3.963,9.448,8.018,13.216,14.735,19.46
					c1.488,1.383,3.174,2.949,4.99,4.707c4.833,4.675,7.265,12.155,9.618,19.388c2.357,7.245,4.793,14.737,9.658,19.644
					c9.461,9.545,14.849,32.807,14.902,33.041C149.926,234.712,150.086,234.842,150.27,234.854z"/>
				<path style="fill:#CAC566;" d="M124.27,177.814c0.165,0.011,0.329-0.076,0.409-0.234c0.106-0.21,0.021-0.466-0.19-0.572
					c-1.324-0.664-32.498-16.142-42.154-3.986c-0.146,0.184-0.116,0.452,0.069,0.598c0.184,0.147,0.452,0.117,0.598-0.069
					c9.229-11.616,40.787,4.057,41.105,4.218C124.16,177.796,124.215,177.81,124.27,177.814z"/>
				<path style="fill:#CAC566;" d="M103.416,219.338c0.144,0.01,0.289-0.054,0.377-0.181c9.843-14.102,41.673,1.331,41.993,1.489
					l0.647,0.318l-0.033-0.72c-0.898-19.383,11.882-23.466,12.011-23.505c0.226-0.068,0.353-0.305,0.285-0.531
					c-0.068-0.226-0.307-0.356-0.531-0.285c-0.134,0.04-13.228,4.221-12.644,23.651c-4.744-2.227-32.844-14.632-42.426-0.906
					c-0.135,0.194-0.088,0.459,0.105,0.593C103.266,219.308,103.34,219.333,103.416,219.338z"/>
				<path style="fill:#CAC566;" d="M123.366,175.275c0.037,0.003,0.076,0,0.115-0.008c0.23-0.047,0.378-0.273,0.33-0.503
					c-3.051-14.779,6.223-22.766,6.318-22.846c0.18-0.151,0.203-0.42,0.052-0.6c-0.152-0.18-0.42-0.203-0.6-0.052
					c-0.097,0.082-9.756,8.399-6.603,23.671C123.016,175.128,123.179,175.263,123.366,175.275z"/>
				<path style="fill:#CAC566;" d="M94.96,133.72l-0.145-1.023c-1.496-10.526,3.457-14.691,3.507-14.732
					c0.182-0.148,0.21-0.416,0.062-0.599c-0.148-0.182-0.415-0.211-0.598-0.064c-0.214,0.172-5.089,4.226-3.936,14.566
					c-2.607-1.705-11.23-6.674-20.589-4.671c-0.23,0.049-0.377,0.276-0.327,0.506c0.05,0.229,0.274,0.378,0.505,0.328
					c10.791-2.31,20.599,4.993,20.696,5.068L94.96,133.72z"/>
			</g>
		</g>
		<g>
			<g>
				<path style="fill:#F9F37F;" d="M136.467,201.786c-17.095-0.236-24.506-20.497-36.761-21.739s-27.844,0.252-38.682-11.06
					c-10.838-11.311-40.368,3.947-16.245,21.118c5.326,3.791,9.268,6.796,12.271,9.315l13.572-0.801l-6.549,7.673
					c3.723,4.569,4.481,8.078,9.365,15.318c8.917,13.217,24.805,11.47,32.917,15.721c8.112,4.251,8.345,23.107,22.41,24.591
					c14.065,1.484,42.637-15.406,42.637-15.406S170.8,202.261,136.467,201.786z"/>
				<path style="fill:#CAC566;" d="M165.421,243.61c0.036-0.018,0.07-0.042,0.102-0.071c0.171-0.161,0.179-0.431,0.018-0.603
					c-0.678-0.72-16.761-17.68-29.988-21.18c-6.484-1.716-12.303-6.873-17.93-11.859c-5.771-5.115-11.737-10.403-18.478-12.037
					c-2.464-0.597-4.716-1.095-6.703-1.534c-8.842-1.956-14.18-3.137-22.235-9.166c-3.212-2.404-5.605-4.668-7.716-6.666
					c-4.496-4.255-7.744-7.33-14.9-8.122c-0.233-0.027-0.445,0.142-0.47,0.376c-0.025,0.234,0.143,0.445,0.377,0.47
					c6.871,0.761,10.032,3.753,14.408,7.894c2.127,2.014,4.539,4.296,7.791,6.73c8.203,6.138,13.607,7.334,22.562,9.316
					c1.983,0.439,4.231,0.935,6.686,1.531c6.535,1.583,12.421,6.8,18.113,11.845c5.702,5.053,11.597,10.278,18.277,12.046
					c12.993,3.438,29.421,20.766,29.585,20.94C165.052,243.661,165.257,243.692,165.421,243.61z"/>
				<path style="fill:#CAC566;" d="M114.111,207.597c0.148-0.074,0.246-0.232,0.234-0.409c-0.015-0.234-0.218-0.413-0.453-0.397
					c-1.478,0.098-36.197,2.543-38.365,17.916c-0.033,0.233,0.129,0.448,0.362,0.481c0.233,0.033,0.449-0.128,0.481-0.362
					c2.073-14.69,37.222-17.161,37.578-17.184C114.007,207.637,114.061,207.622,114.111,207.597z"/>
				<path style="fill:#CAC566;" d="M117.163,253.963c0.129-0.064,0.222-0.193,0.234-0.347c1.344-17.145,36.606-19.96,36.961-19.987
					l0.719-0.053l-0.393-0.604c-10.592-16.257-1.641-26.252-1.549-26.351c0.16-0.173,0.15-0.442-0.023-0.602
					c-0.173-0.16-0.445-0.151-0.602,0.023c-0.095,0.102-9.268,10.34,1.078,26.797c-5.219,0.483-35.731,4.02-37.04,20.708
					c-0.018,0.235,0.156,0.44,0.391,0.459C117.018,254.013,117.095,253.997,117.163,253.963z"/>
				<path style="fill:#CAC566;" d="M112.045,205.866c0.033-0.017,0.065-0.038,0.095-0.065c0.174-0.157,0.188-0.427,0.03-0.601
					c-10.116-11.197-6.166-22.782-6.125-22.898c0.079-0.221-0.038-0.465-0.259-0.544c-0.222-0.078-0.465,0.038-0.544,0.26
					c-0.042,0.12-4.157,12.184,6.297,23.754C111.669,205.916,111.878,205.95,112.045,205.866z"/>
				<path style="fill:#CAC566;" d="M66.504,184.425l-0.644-0.809c-6.622-8.318-4.461-14.419-4.438-14.479
					c0.082-0.22-0.029-0.466-0.25-0.548c-0.22-0.082-0.464,0.028-0.548,0.248c-0.097,0.257-2.247,6.222,3.984,14.553
					c-3.112-0.15-13.063-0.066-20.119,6.401c-0.174,0.159-0.186,0.428-0.026,0.602c0.159,0.173,0.428,0.187,0.602,0.027
					c8.134-7.457,20.29-6.128,20.411-6.114L66.504,184.425z"/>
			</g>
		</g>
	</g>
</g>
<g id="OBJECTS">
	<ellipse style="fill:#B3B3B3;" cx="263.838" cy="416.545" rx="88.001" ry="11.561"/>
	<g>
		<path style="fill:#DAEBF0;" d="M351.649,87.441c-17.946-3.963-35.93-0.214-51.867,9.406c-22.05,13.308-49.138,13.325-71.203,0.043
			c-15.948-9.6-33.937-13.327-51.878-9.342c-46.146,10.25-74.468,67.609-63.261,128.115c0.534,2.882,1.149,5.719,1.842,8.506
			c2.38,9.582,3.125,19.598,2.108,29.465c-0.716,6.946-1.088,14.039-1.084,21.252c0.036,62.578,27.792,116.424,67.625,140.507
			c21.072,12.74,46.895-4.221,46.88-30.581l-0.015-25.928l0.179,0c-0.49-5.18-0.03-10.67,1.872-16.336
			c4.358-12.981,15.134-22.475,27.686-23.983c20.21-2.429,37.317,14.833,37.329,36.479c0.001,1.283-0.061,2.55-0.177,3.8l0.179,0
			l0.015,25.929c0.015,26.361,25.858,43.29,46.915,30.524c39.805-24.132,67.5-78.011,67.464-140.59
			c-0.004-7.213-0.385-14.306-1.108-21.251c-1.028-9.866-0.295-19.882,2.074-29.467c0.689-2.788,1.302-5.626,1.832-8.509
			C426.195,154.958,397.806,97.634,351.649,87.441z"/>
		<path style="opacity:0.57;fill:#FFFFFF;" d="M280.868,121.544c21.936-4.685,26.059-16.462,48.363-16.464
			c4.993-0.001,29.73,0.587,47.334,19.551c17.423,18.769,24.753,52.19,8.232,74.088c-11.05,14.645-31.365,22.276-49.392,19.551
			c-31.266-4.726-30.924-36.865-67.914-50.421c-28.056-10.282-42.473,2.996-59.682-11.319
			c-16.478-13.706-22.498-41.882-13.377-50.421C207.065,94.282,237.28,130.853,280.868,121.544z"/>
		<path style="fill:#C5DAE0;" d="M230.811,384.811l-0.003-4.523c-22.423-25.183-68.05-26.062-77.737-61.484
			c-7.473-27.327,16.621-38.011,13.705-83.375c-1.99-30.953-14.111-40.038-20.558-67.385c-3.896-16.524-5.4-38.419,1.624-66.388
			c-28.261,22.816-43.021,67.478-34.402,114.006c0.534,2.882,1.149,5.719,1.842,8.506c2.38,9.582,3.125,19.598,2.108,29.465
			c-0.716,6.946-1.088,14.039-1.084,21.252c0.036,62.578,27.792,116.424,67.625,140.507
			C205.003,428.133,230.826,411.172,230.811,384.811z"/>
		<path style="fill:#C5DAE0;" d="M226.856,271.389c2.289-3.872,30.415,6.301,57.443-0.951c3.795-1.018,8.637-2.667,9.351-1.902
			c1.046,1.12-6.763,7.396-16.699,10.936c-12.253,4.365-30.109,5.412-42.749-1.426C232.775,277.273,225.655,273.421,226.856,271.389
			z"/>
	</g>
	<g>
		<path style="fill:#45D198;" d="M228.579,96.89c22.065,13.282,49.153,13.265,71.203-0.043c0.592-0.357,1.192-0.689,1.789-1.031
			c-4.1-4.189-11.604-9.553-25.366-15.309c0,0-18.716-8.94-28.878-6.195c-5.849,1.58-13.609,12.965-19.147,22.349
			C228.312,96.739,228.447,96.81,228.579,96.89z"/>
		<g style="opacity:0.36;">
			<path d="M287.651,102.656l-2.163-3.392l-0.746,4.391C285.717,103.347,286.686,103.009,287.651,102.656z"/>
		</g>
		<g style="opacity:0.36;">
			<path d="M236.365,100.93l7.565-6.905l-11.045,5.254C234.033,99.866,235.195,100.411,236.365,100.93z"/>
		</g>
		<g style="opacity:0.36;">
			<path d="M248.514,105.018l22.448-26.734l-28.951,24.859C244.156,103.877,246.325,104.503,248.514,105.018z"/>
		</g>
		<path style="fill:#FFFFFF;" d="M275.833,105.827l13.899-18.746c0,0-10.869-6.407-18.77-8.796l-22.448,26.734
			C257.496,107.131,266.775,107.402,275.833,105.827z"/>
		<g style="opacity:0.08;">
			<path d="M228.579,96.89c-0.589-0.355-1.187-0.685-1.782-1.023l-9.259,5.746l4.446,11.076l74.741-4.866l-4.238-6.211l-1.667-0.202
				C270.675,109.921,247.735,108.42,228.579,96.89z"/>
		</g>
		<path style="fill:#F2B783;" d="M303.636,68.89c1.615,6.181-2.902,13.231-8.799,15.894c-6.109,2.759-10.727-0.663-12.58-7.079
			c-1.644-5.692,0.298-12.869,4.882-16.095C293.079,57.431,301.621,61.179,303.636,68.89z"/>
		<path style="fill:#F2B783;" d="M293.521,70.761l-8.862-6.413l-15.51,21.434c-2.221,3.069-1.533,7.358,1.536,9.578l0,0
			c3.302,2.389,7.947,1.389,9.973-2.147L293.521,70.761z"/>
		<path style="fill:#1D1464;" d="M280.638,56.866c-2.678,7.749-3.044,17.247-3.044,17.247s0-0.159,0.293-0.623l-0.293,0.623
			l5.9-3.09c0,0-2.632-2.232,0.587-4.637c3.533-1.982,3.196,5.354,5.379,2.201c2.414-3.489,1.806-5.401,1.806-5.401
			s18.033,12.315,18.427,2.859C310.738,40.955,283.316,49.117,280.638,56.866z"/>
		<g style="opacity:0.36;">
			<path d="M281.073,104.695l8.658-17.615l-13.899,18.746C277.59,105.521,279.337,105.139,281.073,104.695z"/>
		</g>
		<path style="fill:#FFFFFF;" d="M273.755,79.418l-3.069,15.943l14.802-10.577l2.671,2.296l-13.642,14.532
			c0,0-8.262-3.553-8.572-4.061c-0.311-0.508-2.722-6.155-2.722-6.155l8.185-11.294L273.755,79.418z"/>
		<g style="opacity:0.08;">
			<path d="M273.755,79.418c0,0-6.24,3.219-5.341,7.662c0.899,4.443-4.302,4.062-4.557,6.854c-0.254,2.792,2.087,8.883,2.087,8.883
				l4.741-7.456L273.755,79.418z"/>
		</g>
		<g style="opacity:0.08;">
			<path d="M285.488,84.784c0,0-1.581,6.486-6.149,8.897c-4.569,2.411-0.889,5.33-5.584,6.98c-4.695,1.65-7.811,2.157-7.811,2.157
				l4.741-7.456L285.488,84.784z"/>
		</g>
		<path style="fill:#1D1464;" d="M286.031,83.837c0,0-3.626-2.846-5.347-4.419l3.655,6.187l1.149-0.821L286.031,83.837z"/>
		<g>
			<g>
				<g>
					<path style="fill:#FFFFFF;" d="M328.031,190.523c2.677-2.626,4.376-5.635,4.586-8.795c-1.161,2.51-3.236,4.72-5.795,6.579
						c-2.6,1.794-5.935,3.063-9.342,3.283c-0.83,0.004-1.684,0.031-2.516-0.011c-0.805-0.091-1.635-0.197-2.422-0.327
						c-1.474-0.288-2.927-0.695-4.34-1.237c-1.409-0.542-2.742-1.254-3.949-2.009c-1.183-0.765-2.232-1.581-3.155-2.232
						c-1.791-1.323-3.219-1.962-5.382-2.364c-0.525-0.106-1.111-0.15-1.668-0.236l-1.802-0.128
						c-1.181-0.017-2.362-0.053-3.533,0.061c-4.638,0.313-9.469,2.451-13.258,6.778c3.077-1.787,5.729-2.681,8.013-2.963
						c2.247-0.306,4.012-0.078,5.735,0.261c0.854,0.153,1.716,0.374,2.59,0.553c0.473,0.119,0.957,0.226,1.401,0.318
						c0.37,0.147,0.8,0.228,1.111,0.35c1.347,0.571,1.196,0.626,2.721,1.644c1.508,1.131,4.692,3.403,8.207,4.527
						c1.744,0.602,3.535,0.948,5.286,1.178c0.994,0.106,2.083,0.176,3.109,0.212c1.07-0.009,2.174-0.103,3.233-0.213
						C321.237,195.133,325.322,193.104,328.031,190.523z"/>
					<path style="fill:#45D198;" d="M279.521,182.41c2.255-2.24,5.37-3.849,8.54-4.727c1.594-0.46,3.196-0.701,4.787-0.871
						c0.776-0.051,1.552-0.118,2.336-0.133c0.802,0.024,1.595,0.011,2.411,0.08c1.629,0.146,3.304,0.473,4.882,1.067
						c1.553,0.616,2.923,1.447,4.05,2.249c2.172,1.652,3.693,2.886,5.628,3.871c0.949,0.505,1.998,0.908,3.076,1.326l1.515,0.463
						c0.51,0.125,1.032,0.198,1.56,0.315c2.118,0.295,4.446,0.045,6.909-0.692c2.465-0.758,4.949-2.024,7.404-3.63
						c-3.405,0.954-6.266,1.423-8.613,1.413c-2.355-0.049-3.932-0.56-5.08-1.254c-0.298-0.223-0.572-0.363-0.843-0.539
						c-0.286-0.23-0.524-0.388-0.828-0.578l-1.143-0.697l-0.987-0.688c-1.261-0.921-2.053-1.723-4.525-3.586
						c-1.279-0.926-3.077-2.016-5.176-2.791c-2.127-0.779-4.358-1.141-6.418-1.245c-1.031-0.052-1.98-0.003-2.968,0.034
						c-0.931,0.071-1.83,0.204-2.736,0.323c-1.898,0.332-3.818,0.758-5.729,1.486c-3.79,1.408-7.482,3.801-9.743,6.868
						c-1.145,1.504-1.953,3.117-2.362,4.729c-0.424,1.593-0.484,3.217-0.011,4.682C275.742,187.273,277.273,184.619,279.521,182.41z
						"/>
					<path style="fill:#1D1464;" d="M288.712,183.107c1.171-0.114,2.352-0.078,3.533-0.061l1.802,0.128
						c0.557,0.086,1.143,0.13,1.668,0.236c2.164,0.402,3.591,1.041,5.382,2.364c0.923,0.651,1.972,1.468,3.155,2.232
						c1.207,0.755,2.54,1.467,3.949,2.009c1.413,0.542,2.866,0.949,4.34,1.237c0.787,0.13,1.617,0.236,2.422,0.327
						c0.832,0.042,1.686,0.015,2.516,0.011c3.407-0.22,6.742-1.489,9.342-3.283c2.559-1.859,4.634-4.069,5.795-6.579
						c-2.454,1.605-4.939,2.872-7.404,3.63c-2.463,0.737-4.79,0.987-6.909,0.692c-0.528-0.117-1.05-0.19-1.56-0.315l-1.515-0.463
						c-1.077-0.418-2.126-0.821-3.076-1.326c-1.935-0.985-3.455-2.219-5.628-3.871c-1.127-0.802-2.497-1.633-4.05-2.249
						c-1.579-0.594-3.254-0.921-4.882-1.067c-0.816-0.068-1.609-0.056-2.411-0.08c-0.784,0.016-1.56,0.082-2.336,0.133
						c-1.59,0.17-3.192,0.412-4.787,0.871c-3.17,0.878-6.285,2.487-8.54,4.727c-2.247,2.209-3.778,4.863-4.066,7.475
						C279.243,185.558,284.074,183.42,288.712,183.107z"/>
				</g>
				<g>
					<g>
						<path style="fill:#F0F0F0;" d="M319.291,183.853l-26.242-10.17l2.45-5.766c0.763-1.795,3.001-2.623,5-1.848l19.003,7.365
							c1.999,0.775,3.001,2.858,2.238,4.653L319.291,183.853z"/>
						<path style="fill:#FFFFFF;" d="M312.798,187.958l-17.852-6.924c-2.363-0.916-3.512-3.572-2.538-5.863l0.627-1.475
							c0.75-1.763,2.977-2.565,4.974-1.79l18.989,7.365c1.997,0.775,3.009,2.832,2.259,4.596l-0.738,1.735
							C317.589,187.79,315.056,188.834,312.798,187.958z"/>
						<path style="fill:#D3D4C4;" d="M293.035,173.695c0.75-1.763,2.977-2.565,4.974-1.79l18.989,7.365
							c1.736,0.673,2.724,2.316,2.461,3.891l0.135-0.318c0.75-1.764-0.262-3.821-2.259-4.596l-18.989-7.365
							c-1.997-0.775-4.224,0.027-4.974,1.79l-0.627,1.475c-0.117,0.275-0.202,0.555-0.259,0.837L293.035,173.695z"/>
					</g>
				</g>
			</g>
			<g>
				<path style="fill:#F53863;" d="M200.748,125.431L200.748,125.431c0.725-1.85,2.752-2.68,4.528-1.854l100.526,46.747l-2.625,6.7
					l-100.526-46.747C200.875,129.45,200.023,127.281,200.748,125.431z"/>
				<path style="fill:#F53863;" d="M292.385,175.118l25.858,10.813c0.584,0.244,1.24,0.019,1.464-0.503l4.75-11.069
					c0.224-0.522-0.068-1.143-0.652-1.388l-25.858-10.813c-0.584-0.244-1.24-0.019-1.464,0.503l-4.751,11.069
					C291.508,174.253,291.801,174.874,292.385,175.118z"/>
				<polygon style="fill:#AD415A;" points="295.274,165.427 292.641,172.123 291.771,163.798 				"/>
				<path style="fill:#F51C4D;" d="M308.213,178.501l9.47,3.96c0.214,0.089,0.454,0.007,0.536-0.184l1.74-4.054
					c0.082-0.191-0.025-0.419-0.239-0.508l-9.469-3.96c-0.214-0.089-0.454-0.007-0.536,0.184l-1.74,4.054
					C307.892,178.184,307.999,178.411,308.213,178.501z"/>
			</g>
		</g>
		<g>
			<path style="fill:#45D198;" d="M257.446,81.313c0,0-0.101,6.751-13.517,12.712c-13.416,5.961-21.019,10.771-21.019,10.771
				l19.575,33.326l-11.668,3.409c0,0-28.742-36.006-25.093-44.397C209.373,88.743,258.884,61.195,257.446,81.313z"/>
			<path style="fill:#F2B783;" d="M231.835,141.234c0,0,3.913,9.844,9.151,10.234c5.503,0.41,6.802-4.134,6.21-5.241
				c-0.592-1.107-3.178-4.754-3.178-4.754l-1.533-3.351L231.835,141.234z"/>
		</g>
		<g>
			<path style="fill:#45D198;" d="M286.588,93.902c0,0-4.505,5.076,4.003,17.04c8.508,11.964,12.601,19.976,12.601,19.976
				l-33.822,18.707l8.304,8.877c0,0,43.075-16.343,44.209-25.423C323.018,124,295.599,75.858,286.588,93.902z"/>
			<path style="fill:#F2B783;" d="M276.95,157.727c0,0-8.382,6.478-13.088,4.145c-4.944-2.451-3.747-7.022-2.674-7.673
				c1.074-0.651,5.156-2.472,5.156-2.472l3.026-2.103L276.95,157.727z"/>
		</g>
		<g style="opacity:0.13;">
			<path d="M318.243,185.931l-26.116-8.311c0,0-0.281-1.23,0.296-2.485L318.243,185.931z"/>
		</g>
	</g>
	<g>
		<g>
			<path style="fill:#F2B783;" d="M360.822,329.627c0,0-0.015,1.8-5.693,10.848c-1.012,1.612-2.674-1.494-2.674-1.494
				s-4.853,7.167-7.767,5.008s6.723-20.204,6.723-20.204L360.822,329.627z"/>
			<polygon style="fill:#1EA16B;" points="374.775,271.196 348.024,327.826 368.913,333.711 			"/>
		</g>
		<ellipse style="fill:#CCCCCC;" cx="406.81" cy="444.392" rx="45.903" ry="4.931"/>
		<g>
			<g>
				<g>
					<g>
						<polygon style="fill:#B3B3B3;" points="331.149,229.11 337.165,230.379 336.676,232.597 330.66,231.328 						"/>
					</g>
					<path style="fill:#B3B3B3;" d="M322.642,298.601l14.54-65.897l-2.236-0.472v0l-2.512-0.53v0l-2.576-0.544l-14.54,65.897
						c-0.42,1.905,0.308,3.745,1.682,4.596c0.316,0.195,0.666,0.339,1.044,0.419c0.506,0.107,1.014,0.09,1.5-0.033
						C321,301.671,322.255,300.358,322.642,298.601z"/>
					<g>
						<path style="fill:#5C5B64;" d="M315.23,299.368l6.534,1.378l-0.295,1.337c-0.107,0.487-0.593,0.797-1.086,0.693l-4.752-1.002
							c-0.492-0.104-0.804-0.583-0.697-1.069L315.23,299.368z"/>
					</g>
					<path style="fill:#B3B3B3;" d="M335.994,230.49l-1.889-0.399l-1.889-0.398c2.662-4.031,1.494-6.77,1.494-6.77l1.889,0.398
						l1.889,0.399C337.488,223.72,335.268,225.744,335.994,230.49z"/>
				</g>
				<path style="fill:#5C5B64;" d="M334.457,223.08l1.142,0.241l1.889,0.399c0,0-1.106,1.019-1.5,3.289l-2.069-1.678
					c0.133-1.202-0.076-2.011-0.169-2.294L334.457,223.08z"/>
				<path style="fill:#5C5B64;" d="M320.904,217.108c0.237,0.05,0.39,0.256,0.394,0.486l5.536,0.282l-0.422,1.915l-5.162-1.975
					c-0.1,0.208-0.326,0.334-0.564,0.284c-0.277-0.058-0.452-0.328-0.392-0.601C320.354,217.225,320.627,217.05,320.904,217.108z"/>
				<path style="fill:#B3B3B3;" d="M326.308,223.258l15.471,3.263c0.35,0.074,0.695-0.147,0.771-0.492l1.617-7.33
					c0.076-0.346-0.145-0.686-0.495-0.759l-15.471-3.264c-0.35-0.074-0.695,0.147-0.771,0.493l-1.617,7.33
					C325.737,222.844,325.959,223.184,326.308,223.258z"/>
				<polygon style="fill:#5C5B64;" points="324.854,222.108 325.853,222.319 327.391,215.348 326.392,215.137 				"/>
				<path style="fill:#FFFFFF;" d="M328.377,217.591l5.106,1.077c0.253,0.053,0.503-0.106,0.558-0.357l0.182-0.826
					c0.055-0.25-0.105-0.496-0.358-0.55l-5.106-1.077c-0.253-0.053-0.503,0.106-0.558,0.356l-0.182,0.826
					C327.964,217.291,328.124,217.537,328.377,217.591z"/>
			</g>
		</g>
		<g>
			<g>
				<path style="fill:#1D1464;" d="M392.146,223.037c6.708,2.253,9.04,14.495,11.484,22.907c2.835,9.757,0.737,11.228,3.726,17.815
					c4.217,9.292,9.528,8.869,12.974,17.123c2.552,6.112,3.087,14.6-0.242,20.958c-6.805,12.996-28.069,13.862-35.485,5.364
					c-3.613-4.141-17.745-5.036-21.4-25.992c-2.205-12.64,6.293-16.383,7.212-25.107c1.296-12.306,1.488-18.873,2.393-22.836
					C374.781,224.638,384.66,220.522,392.146,223.037z"/>
				<path style="fill:#45D198;" d="M374.248,436.491c0,0-15.178,9.358-20.309,9.675c-5.131,0.316-1.222,2.33,4.398,2.575
					c5.62,0.244,8.481-1.159,11.85-2.136c3.37-0.977,7.452-3.026,10.384-5.483c0.029-0.025,0.058-0.049,0.087-0.074
					c1.968-1.708,1.741-5.018-0.86-4.871L374.248,436.491z"/>
				<polygon style="fill:#F2B783;" points="374.248,436.491 374.248,432.311 379.798,432.311 379.798,436.177 				"/>
				<path style="fill:#F2B783;" d="M374.248,436.491c0,0-2.953,1.76-9.404,5.34c-6.08,3.374-1.347,2.805,2.029,1.719
					c7.086-2.279,12.925-7.373,12.925-7.373L374.248,436.491z"/>
				<g>
					<path style="fill:#45D198;" d="M438.318,430.341c0,0-8.991,15.399-13.369,18.092c-4.379,2.693,0.018,2.631,5.092,0.203
						c5.074-2.428,6.939-5.013,9.452-7.46c2.513-2.448,5.153-6.176,6.584-9.724c0.014-0.035,0.028-0.071,0.042-0.106
						c0.934-2.433-0.824-5.247-3.051-3.893L438.318,430.341z"/>
					<polygon style="fill:#F2B783;" points="438.318,430.341 436.351,426.652 441.249,424.041 443.068,427.453 					"/>
					<path style="fill:#F2B783;" d="M438.318,430.341c0,0-1.777,2.942-5.786,9.136c-3.778,5.838,0.131,3.108,2.599,0.562
						c5.181-5.344,7.937-12.587,7.937-12.587L438.318,430.341z"/>
				</g>
				<path style="fill:#45D198;" d="M373.254,270.627l-20.8,89.919c0,0,19.901,7.111,34.097,2.514L373.254,270.627z"/>
				<path style="fill:#1D1464;" d="M371.985,323.617l25.59-7.856c0,0,9.193,37.583,7.7,57.145c0,0,29.49,25.035,36.359,52.193
					l-6.077,4.11c0,0-37.334-41.893-42.499-47.12C386.857,375.815,376.844,365.017,371.985,323.617z"/>
				<path style="fill:#1D1464;" d="M373.289,310.553l18.522,3.009c0,0-2.118,49.815-13.426,65.847c0,0,6.644,36.04,2.698,53.981
					l-7.325,0.415c0,0-8.814-45.637-10.571-52.771C361.079,372.466,365.646,355.065,373.289,310.553z"/>
				<g style="opacity:0.36;">
					<polygon points="370.028,329.044 368.82,335.697 403.177,332.371 					"/>
				</g>
				<polygon style="fill:#FFFFFF;" points="375.342,279.481 368.361,328.861 391.895,331.456 388.891,272.159 				"/>
				<path style="fill:#F2B783;" d="M376.595,230.682c-3.602,4.204-3.925,11.762-0.341,16.073c3.714,4.466,9.78,3.198,13.656-1.098
					c3.439-3.812,4.647-10.14,2.298-14.391C389.164,225.757,381.088,225.438,376.595,230.682z"/>
				<path style="fill:#F2B783;" d="M381.134,235.813h9.478v22.925c0,3.283-2.661,5.944-5.944,5.944l0,0
					c-3.532,0-6.285-3.062-5.91-6.574L381.134,235.813z"/>
				<path style="fill:#1D1464;" d="M380.128,228.402c0,0,2.349,14.277,15.36,13.137c9.084-0.796,1.306-23.088-10.677-19.499
					c-16.842,5.044-10.918,13.056-10.918,13.056S375.958,229.11,380.128,228.402z"/>
				<g>
					<path style="fill:#F2B783;" d="M391.28,242.087c-0.75,0.962-1.933,1.168-2.642,0.459c-0.709-0.708-0.675-2.062,0.075-3.024
						c0.75-0.962,1.933-1.167,2.642-0.459C392.063,239.772,392.03,241.126,391.28,242.087z"/>
				</g>
				<path style="fill:#45D198;" d="M384.461,254.094c0,0,13.011-6.212,15.805,15.71s8.811,100.653,8.811,100.653
					s-28.154,3.155-39.115-1.573L384.461,254.094z"/>
				<g style="opacity:0.36;">
					<polygon points="376.316,318.578 378.615,300.382 384.668,289.89 					"/>
				</g>
				<path style="fill:#45D198;" d="M386.36,253.453c0,0-6.952,0.379-12.547,14.444c-5.595,14.066-10.242,22.095-10.242,22.095
					l-35.134-18.81l-3.037,12.16c0,0,38.268,28.146,46.765,24.045C380.662,303.286,407.028,251.152,386.36,253.453z"/>
				<polygon style="fill:#1D1464;" points="379.536,250.783 386.168,248.517 379.703,249.177 				"/>
				<g style="opacity:0.36;">
					<rect x="383.106" y="339.11" width="16.463" height="5.114"/>
				</g>
				<path style="fill:#FFFFFF;" d="M392.898,242.997c-0.26,0.915-1.211,1.446-2.126,1.186c-0.914-0.26-1.445-1.211-1.186-2.126
					c0.26-0.915,1.211-1.446,2.126-1.186C392.626,241.131,393.157,242.082,392.898,242.997z"/>
			</g>
			<path style="fill:#F2B783;" d="M325.666,282.281c0,0-10.302-3.63-10.917-9.011c-0.646-5.653,3.982-7.177,5.147-6.611
				c1.165,0.565,5.027,3.081,5.027,3.081l3.515,1.443L325.666,282.281z"/>
		</g>
	</g>
	<g>
		<polygon style="fill:#DED870;" points="380.867,85.591 377.432,75.537 371.206,72.188 377.385,68.752 380.735,58.652 
			384.17,68.706 390.396,72.055 384.217,75.491 		"/>
		<polygon style="fill:#DED870;" points="427.601,206.73 424.453,197.518 418.748,194.449 424.41,191.301 427.479,182.047 
			430.627,191.258 436.332,194.328 430.67,197.475 		"/>
		<polygon style="fill:#DED870;" points="150.888,109.565 146.666,97.208 139.013,93.091 146.608,88.868 150.725,76.454 
			154.947,88.811 162.6,92.928 155.005,97.15 		"/>
		<polygon style="fill:#DED870;" points="384.691,143.517 381.753,134.916 376.426,132.05 381.713,129.111 384.578,120.47 
			387.517,129.071 392.844,131.937 387.557,134.876 		"/>
		<polygon style="fill:#DED870;" points="194.316,56.473 192.847,52.173 190.184,50.74 192.827,49.27 194.26,44.95 195.729,49.25 
			198.392,50.683 195.749,52.152 		"/>
		<polygon style="fill:#DED870;" points="148.644,41.725 147.175,37.425 144.511,35.992 147.155,34.522 148.587,30.202 
			150.057,34.502 152.72,35.935 150.077,37.405 		"/>
	</g>
	<g>
		<g>
			<ellipse style="fill:#CCCCCC;" cx="119.464" cy="439.835" rx="43.319" ry="5.691"/>
			<g>
				<path style="fill:#F53863;" d="M89.207,440.85c1.026,0,1.947-0.719,2.16-1.765l38.352-187.1
					c0.245-1.195-0.525-2.361-1.719-2.606c-1.188-0.249-2.362,0.525-2.606,1.719l-38.352,187.1c-0.245,1.194,0.525,2.361,1.72,2.606
					C88.911,440.836,89.061,440.85,89.207,440.85z"/>
				<path style="fill:#AD415A;" d="M125.768,269.997h55.34c1.219,0,2.208-0.989,2.208-2.208s-0.989-2.208-2.208-2.208h-55.34
					c-1.219,0-2.208,0.989-2.208,2.208S124.549,269.997,125.768,269.997z"/>
				<path style="fill:#AD415A;" d="M120.366,294.063h55.34c1.219,0,2.208-0.989,2.208-2.208s-0.989-2.208-2.208-2.208h-55.34
					c-1.219,0-2.208,0.989-2.208,2.208S119.147,294.063,120.366,294.063z"/>
				<path style="fill:#AD415A;" d="M115.728,318.129h55.341c1.219,0,2.208-0.988,2.208-2.208c0-1.219-0.989-2.208-2.208-2.208
					h-55.341c-1.219,0-2.208,0.989-2.208,2.208C113.52,317.141,114.509,318.129,115.728,318.129z"/>
				<path style="fill:#AD415A;" d="M110.715,342.196h55.341c1.219,0,2.208-0.989,2.208-2.208c0-1.219-0.989-2.208-2.208-2.208
					h-55.341c-1.219,0-2.208,0.989-2.208,2.208C108.507,341.207,109.496,342.196,110.715,342.196z"/>
				<path style="fill:#AD415A;" d="M105.989,366.262h55.34c1.219,0,2.208-0.989,2.208-2.208c0-1.219-0.989-2.208-2.208-2.208h-55.34
					c-1.219,0-2.208,0.989-2.208,2.208C103.781,365.273,104.77,366.262,105.989,366.262z"/>
				<path style="fill:#AD415A;" d="M101.296,390.328h55.34c1.219,0,2.208-0.989,2.208-2.208c0-1.219-0.989-2.208-2.208-2.208h-55.34
					c-1.219,0-2.208,0.989-2.208,2.208C99.088,389.339,100.077,390.328,101.296,390.328z"/>
				<path style="fill:#AD415A;" d="M96.513,414.394h55.34c1.219,0,2.208-0.989,2.208-2.208c0-1.219-0.989-2.208-2.208-2.208h-55.34
					c-1.219,0-2.208,0.989-2.208,2.208C94.306,413.405,95.294,414.394,96.513,414.394z"/>
				<path style="fill:#F53863;" d="M148.443,440.85c1.026,0,1.947-0.719,2.161-1.765l38.351-187.1
					c0.245-1.195-0.525-2.361-1.719-2.606c-1.188-0.249-2.362,0.525-2.606,1.719l-38.351,187.1
					c-0.245,1.194,0.525,2.361,1.719,2.606C148.146,440.836,148.296,440.85,148.443,440.85z"/>
			</g>
		</g>
		<g>
			<g>
				<path style="fill:#F2B783;" d="M150.551,260.137c0,0,0.688,1.664,9.338,7.93c1.541,1.116,1.921-2.386,1.921-2.386
					s7.182,4.831,9.077,1.738s-13.793-16.221-13.793-16.221L150.551,260.137z"/>
				<polygon style="fill:#1EA16B;" points="115.752,211.169 161.746,253.678 144.576,266.951 				"/>
			</g>
			<g>
				<g>
					<path style="fill:#B3B3B3;" d="M180.415,187.749l30.103,37.957c0.803,1.012,2.106,1.392,3.277,1.068l-31.889-40.208
						L180.415,187.749z"/>
					<path style="fill:#B3B3B3;" d="M183.583,185.236l31.954,40.291c0.751-1.099,0.738-2.6-0.132-3.698l-30.103-37.957
						L183.583,185.236z"/>
					<path style="fill:#B3B3B3;" d="M181.907,186.566l31.889,40.208c0.391-0.108,0.767-0.295,1.104-0.563
						c0.252-0.2,0.465-0.431,0.638-0.684l-31.954-40.291L181.907,186.566z"/>
					<path style="fill:#B3B3B3;" d="M183.583,185.236l31.954,40.291c0.751-1.099,0.738-2.6-0.132-3.698l-30.103-37.957
						L183.583,185.236z"/>
				</g>
				<polygon style="fill:#5C5B64;" points="173.191,172.703 172.069,173.593 181.907,186.566 183.583,185.236 				"/>
				<g>
					
						<rect x="179.605" y="184.186" transform="matrix(0.7835 -0.6214 0.6214 0.7835 -75.6057 153.2786)" style="fill:#B3B3B3;" width="5.123" height="1.91"/>
				</g>
				<g>
					<path style="fill:#5C5B64;" d="M215.995,223.128l-4.36,3.458l0.824,1.039c0.201,0.253,0.568,0.295,0.821,0.095l3.444-2.732
						c0.253-0.201,0.295-0.568,0.095-0.821L215.995,223.128z"/>
				</g>
				<g style="opacity:0.23;">
					<polygon points="172.638,174.344 174.054,173.221 175.414,178.004 					"/>
				</g>
				
					<ellipse transform="matrix(0.7835 -0.6214 0.6214 0.7835 -66.4572 139.0017)" style="fill:#B3B3B3;" cx="166.253" cy="164.874" rx="10.517" ry="12.621"/>
				<g style="opacity:0.4;">
					<path style="fill:#FFFFFF;" d="M173.073,159.465c3.585,4.52,3.437,10.605-0.329,13.592c-3.766,2.987-9.725,1.745-13.31-2.775
						c-3.585-4.52-3.437-10.605,0.329-13.592C163.529,153.703,169.488,154.946,173.073,159.465z"/>
				</g>
				<path style="fill:#FFFFFF;" d="M175.59,165.43c-0.18-1.574-0.721-3.175-1.628-4.67l-16.574-0.739
					c-0.517,1.403-0.666,2.976-0.439,4.578L175.59,165.43z"/>
				<path style="fill:#FFFFFF;" d="M157.543,166.925c0.18,0.487,0.394,0.969,0.645,1.443l17.123,0.763
					c0.13-0.455,0.233-0.921,0.29-1.402L157.543,166.925z"/>
			</g>
			<g>
				<g>
					<g>
						<g>
							<path style="fill:#45D198;" d="M27.049,341.647c0,0,3.083,17.563,6.253,21.609c3.171,4.046-0.931,2.461-4.846-1.579
								c-3.915-4.039-4.766-7.111-6.273-10.279c-1.507-3.168-2.687-7.581-2.796-11.405c-0.001-0.038-0.002-0.076-0.002-0.114
								c-0.03-2.606,2.595-4.634,4.213-2.591L27.049,341.647z"/>
							<polygon style="fill:#F2B783;" points="27.049,341.647 30.174,338.871 26.489,334.721 23.598,337.289 							"/>
							<path style="fill:#F2B783;" d="M27.049,341.647c0,0,0.645,3.377,2.252,10.577c1.515,6.787-1.202,2.87-2.632-0.375
								c-3.002-6.811-3.07-14.56-3.07-14.56L27.049,341.647z"/>
						</g>
						<path style="fill:#1D1464;" d="M126.32,264.606l-21.268-16.255c0,0-21.674,32.051-27.069,50.913
							c0,0-36.349,13.234-52.223,36.315l4.272,5.965c0,0,49.561-26.318,56.219-29.425C94.245,308.389,107.385,301.74,126.32,264.606
							z"/>
						<path style="fill:#45D198;" d="M126.925,202.68l24.294,96.195c0,0-34.293,11.22-52.651-1.021L126.925,202.68z"/>
						<g>
							<path style="fill:#45D198;" d="M121.554,375.029c0,0,14.921,9.763,20.042,10.217c5.121,0.454,1.159,2.362-4.466,2.456
								c-5.624,0.093-8.447-1.386-11.789-2.454c-3.342-1.068-7.368-3.225-10.233-5.761c-0.029-0.025-0.057-0.051-0.085-0.076
								c-1.922-1.76-1.606-5.063,0.991-4.846L121.554,375.029z"/>
							<polygon style="fill:#F2B783;" points="121.554,375.029 121.667,370.85 116.119,370.701 116.015,374.566 							"/>
							<path style="fill:#F2B783;" d="M121.554,375.029c0,0,2.904,1.839,9.257,5.591c5.988,3.537,1.271,2.84-2.074,1.664
								c-7.022-2.468-12.722-7.718-12.722-7.718L121.554,375.029z"/>
							<path style="fill:#1D1464;" d="M125.9,249.162l-18.597,2.509c0,0,0.777,49.854,11.65,66.184c0,0-7.611,35.849-4.149,53.889
								l7.311,0.611c0,0,10.039-45.383,11.986-52.468C136.44,311.382,132.343,293.864,125.9,249.162z"/>
						</g>
						<g style="opacity:0.36;">
							<polygon points="128.872,269.106 98.923,277.048 93.275,267.567 							"/>
						</g>
						<polygon style="fill:#FFFFFF;" points="129.279,219.863 131.435,269.171 104.556,268.485 117.09,210.45 						"/>
						<path style="fill:#F2B783;" d="M137.721,170.458c3.65,4.163,4.637,11.469,1.102,15.82c-3.662,4.508-10.32,3.557-14.245-0.695
							c-3.482-3.772-4.763-10.086-2.463-14.364C125.096,165.676,133.168,165.265,137.721,170.458z"/>
						<path style="fill:#F2B783;" d="M130.611,175.832l-9.354-1.529l-3.699,22.625c-0.53,3.24,1.667,6.295,4.907,6.825l0,0
							c3.486,0.57,6.696-2.007,6.894-5.534L130.611,175.832z"/>
						<path style="fill:#1D1464;" d="M131.846,167.74c0,0,0.13,14.782-12.893,13.791c-9.092-0.692-1.57-23.071,10.453-19.62
							c16.899,4.851,11.067,12.93,11.067,12.93S138.274,168.215,131.846,167.74z"/>
						<path style="fill:#FFFFFF;" d="M120.875,182.062c0.27,0.911,1.228,1.432,2.139,1.161c0.912-0.27,1.432-1.228,1.162-2.139
							c-0.27-0.911-1.228-1.432-2.139-1.161C121.125,180.193,120.605,181.15,120.875,182.062z"/>
						<path style="fill:#45D198;" d="M128.872,195.785c0,0-15.707-14.206-22.629,10.506c-5.961,21.281-43.761,92.333-43.761,92.333
							s34.214,14.214,45.794,11.317L128.872,195.785z"/>
						<polygon style="fill:#1EA16B;" points="124.561,219.68 123.281,226.774 120.405,213.725 						"/>
						<path style="fill:#45D198;" d="M120.443,192.669c0,0,6.824-1.379,15.772,10.831c8.948,12.21,15.462,18.815,15.462,18.815
							l29.285-27.03l5.993,11.008c0,0-29.975,36.853-39.229,35.017C138.471,239.475,99.859,195.632,120.443,192.669z"/>
						<polygon style="fill:#1D1464;" points="129.771,190.863 123.98,185.675 129.869,189.196 						"/>
						<g style="opacity:0.36;">
							
								<rect x="84.748" y="276.926" transform="matrix(0.1614 -0.9869 0.9869 0.1614 -208.2036 325.3033)" width="5.114" height="16.464"/>
						</g>
						<path style="fill:#1D1464;" d="M107.222,172.575c3.609,2.265,8.535,1.157,11.037-2.081c3.074-3.978,1.848-10.342-2.529-12.701
							c-3.493-1.882-8.1-0.732-10.509,2.385C102.314,163.94,103.072,169.97,107.222,172.575z"/>
						<path style="fill:#45D198;" d="M115.355,172.848c0,0-0.803-5.407,4.727-8.304"/>
					</g>
					<path style="fill:#F2B783;" d="M186.431,205.333c0,0,9.061-6.101,8.305-11.464c-0.794-5.634-5.656-5.947-6.642-5.107
						c-0.986,0.84-4.092,4.244-4.092,4.244l-3.04,2.279L186.431,205.333z"/>
				</g>
			</g>
		</g>
	</g>
</g>
<g id="DESIGNED_BY_FREEPIK">
	<g>
		<g>
			<g>
				<g>
					<g>
						<g id="XMLID_225_">
							<g id="XMLID_244_">
								<path id="XMLID_252_" style="fill:#999999;" d="M260.104,464.632c-0.432,0.443-0.803,0.931-1.108,1.453l-0.465-0.241
									c-0.067-0.298-0.349-0.503-0.659-0.466c-0.331,0.039-0.568,0.339-0.529,0.67c0.039,0.331,0.339,0.568,0.67,0.529
									c0.066-0.008,0.127-0.026,0.184-0.052l0.451,0.234c-0.251,0.554-0.433,1.139-0.539,1.744l0.747,0.132
									c0.23-1.306,0.85-2.507,1.792-3.473L260.104,464.632z"/>
								<path id="XMLID_251_" style="fill:#999999;" d="M265.592,462.33c-0.171,0-0.341,0.006-0.51,0.017l-0.074-0.626
									c0.188-0.149,0.296-0.389,0.266-0.645c-0.046-0.393-0.402-0.674-0.795-0.628c-0.393,0.046-0.674,0.402-0.628,0.795
									c0.03,0.254,0.189,0.461,0.404,0.564l0.074,0.624c-0.714,0.116-1.403,0.332-2.06,0.646l0.327,0.684
									c0.934-0.447,1.942-0.673,2.995-0.673c0.496,0,0.993,0.053,1.475,0.158l0.161-0.741
									C266.692,462.388,266.142,462.33,265.592,462.33z"/>
								<path id="XMLID_250_" style="fill:#999999;" d="M272.194,464.877c0.331-0.04,0.566-0.341,0.526-0.672
									c-0.04-0.331-0.341-0.566-0.672-0.526c-0.309,0.038-0.535,0.304-0.53,0.609l-0.416,0.363
									c-0.418-0.43-0.889-0.813-1.408-1.139l-0.404,0.641c1.134,0.715,2.021,1.726,2.563,2.925l0.69-0.313
									c-0.251-0.554-0.567-1.072-0.942-1.545l0.402-0.351C272.065,464.882,272.129,464.885,272.194,464.877z"/>
								<path id="XMLID_249_" style="fill:#999999;" d="M265.044,472.538c-0.386,0.023-0.775,0.035-1.157,0.035
									c-0.88,0-1.733-0.061-2.478-0.179c-0.39-0.062-0.846-0.155-1.27-0.292c1.046,1.861,3.069,3.125,5.388,3.125
									c2.855,0,5.262-1.916,5.95-4.504c-0.682,0.449-1.505,0.825-2.459,1.123C267.839,472.213,266.463,472.453,265.044,472.538z"
									/>
								<path id="XMLID_245_" style="fill:#999999;" d="M265.592,463.846c-3.352,0-6.08,2.666-6.08,5.944
									c0,0.425,0.046,0.849,0.137,1.261c0.673,0.483,2.706,0.89,5.348,0.731c2.879-0.173,5.297-0.957,6.672-2.159
									c-0.006-0.195-0.021-0.39-0.045-0.582C271.244,466.079,268.65,463.846,265.592,463.846z M263.432,470.361
									c-1.02,0-1.85-0.83-1.85-1.85c0-1.02,0.83-1.85,1.85-1.85c1.02,0,1.85,0.83,1.85,1.85
									C265.282,469.531,264.452,470.361,263.432,470.361z M268.17,469.452c-0.75,0-1.36-0.61-1.36-1.36s0.61-1.361,1.36-1.361
									c0.75,0,1.361,0.61,1.361,1.361S268.92,469.452,268.17,469.452z"/>
							</g>
							<path id="XMLID_242_" style="fill:#999999;" d="M281.595,465.713c-0.295-0.116-0.805-0.309-1.382-0.237
								c-0.551,0.069-0.844,0.341-0.844,1.007v0.866h2.228v1.717h-2.228v5.455h-1.932v-5.455h-1.34v-1.717h1.34v-0.888
								c0-1.68,0.896-2.783,2.568-2.783c0.643,0,1.157,0.122,1.59,0.308L281.595,465.713z"/>
							<path id="XMLID_240_" style="fill:#999999;" d="M286.298,469.045c-0.177-0.03-0.358-0.046-0.526-0.046
								c-0.896,0-1.51,0.548-1.51,1.614v3.908h-1.932v-7.172h1.873v0.785c0.451-0.673,1.14-0.977,2.021-0.977
								c0.414,0,0.848,0.128,1.094,0.337L286.298,469.045z"/>
							<path id="XMLID_237_" style="fill:#999999;" d="M293.965,470.923c0,0.222-0.015,0.489-0.037,0.651h-5.085
								c0.207,1.036,0.933,1.488,1.843,1.488c0.622,0,1.295-0.252,1.813-0.688l1.133,1.243c-0.814,0.748-1.85,1.088-3.057,1.088
								c-2.198,0-3.723-1.495-3.723-3.753c0-2.258,1.48-3.797,3.627-3.797C292.544,467.156,293.958,468.688,293.965,470.923z
								 M288.851,470.257h3.175c-0.177-0.918-0.733-1.436-1.562-1.436C289.554,468.821,289.021,469.369,288.851,470.257z"/>
							<path id="XMLID_234_" style="fill:#999999;" d="M301.618,470.923c0,0.222-0.015,0.489-0.037,0.651h-5.085
								c0.207,1.036,0.933,1.488,1.843,1.488c0.622,0,1.295-0.252,1.814-0.688l1.132,1.243c-0.814,0.748-1.85,1.088-3.057,1.088
								c-2.198,0-3.723-1.495-3.723-3.753c0-2.258,1.48-3.797,3.627-3.797C300.197,467.156,301.611,468.688,301.618,470.923z
								 M296.504,470.257h3.175c-0.178-0.918-0.733-1.436-1.562-1.436C297.207,468.821,296.674,469.369,296.504,470.257z"/>
							<path id="XMLID_231_" style="fill:#999999;" d="M309.964,470.931c0,2.154-1.495,3.775-3.471,3.775
								c-0.962,0-1.643-0.378-2.109-0.933v3.708h-1.924v-10.133h1.887v0.792c0.466-0.585,1.155-0.984,2.139-0.984
								C308.469,467.156,309.964,468.777,309.964,470.931z M304.287,470.931c0,1.132,0.748,1.976,1.843,1.976
								c1.14,0,1.85-0.881,1.85-1.976c0-1.095-0.71-1.976-1.85-1.976C305.035,468.954,304.287,469.798,304.287,470.931z"/>
							<path id="XMLID_228_" style="fill:#999999;" d="M313.068,465.002c0,0.696-0.54,1.229-1.236,1.229
								c-0.696,0-1.229-0.533-1.229-1.229c0-0.696,0.533-1.243,1.229-1.243C312.527,463.759,313.068,464.306,313.068,465.002z
								 M312.809,474.52h-1.932v-7.172h1.932V474.52z"/>
							<path id="XMLID_226_" style="fill:#999999;" d="M316.032,469.902l2.701-2.554h2.368l-3.479,3.375l3.501,3.797h-2.376
								l-2.716-2.901v2.901H314.1v-10.658h1.932V469.902z"/>
						</g>
						<g>
							<path style="fill:#999999;" d="M184.412,474.455V473.4c-0.527,0.718-1.391,1.23-2.387,1.23c-1.846,0-3.149-1.406-3.149-3.706
								c0-2.256,1.289-3.721,3.149-3.721c0.952,0,1.816,0.469,2.387,1.245v-3.765h1.099v9.77H184.412z M184.412,472.536v-3.208
								c-0.395-0.615-1.245-1.143-2.124-1.143c-1.421,0-2.27,1.172-2.27,2.739c0,1.567,0.85,2.724,2.27,2.724
								C183.168,473.65,184.017,473.152,184.412,472.536z"/>
							<path style="fill:#999999;" d="M186.932,470.91c0-2.051,1.465-3.706,3.486-3.706c2.139,0,3.398,1.67,3.398,3.794v0.279
								h-5.727c0.088,1.333,1.025,2.446,2.549,2.446c0.805,0,1.626-0.322,2.182-0.893l0.527,0.718
								c-0.703,0.703-1.655,1.084-2.812,1.084C188.44,474.631,186.932,473.122,186.932,470.91z M190.403,468.113
								c-1.509,0-2.256,1.274-2.314,2.358h4.643C192.718,469.416,192.015,468.113,190.403,468.113z"/>
							<path style="fill:#999999;" d="M194.607,473.518l0.571-0.791c0.469,0.542,1.362,1.011,2.329,1.011
								c1.084,0,1.67-0.513,1.67-1.216c0-1.714-4.38-0.659-4.38-3.281c0-1.098,0.952-2.036,2.636-2.036
								c1.201,0,2.051,0.454,2.622,1.026l-0.513,0.762c-0.424-0.513-1.201-0.894-2.109-0.894c-0.967,0-1.567,0.483-1.567,1.113
								c0,1.552,4.38,0.527,4.38,3.281c0,1.187-0.952,2.138-2.783,2.138C196.306,474.631,195.325,474.279,194.607,473.518z"/>
							<path style="fill:#999999;" d="M201.477,465.637c0-0.41,0.337-0.747,0.732-0.747c0.41,0,0.747,0.337,0.747,0.747
								c0,0.41-0.337,0.732-0.747,0.732C201.814,466.369,201.477,466.047,201.477,465.637z M201.667,474.455v-7.075h1.099v7.075
								H201.667z"/>
							<path style="fill:#999999;" d="M204.582,476.272l0.556-0.82c0.586,0.703,1.289,0.967,2.3,0.967
								c1.172,0,2.27-0.571,2.27-2.124v-1.011c-0.513,0.718-1.377,1.26-2.373,1.26c-1.845,0-3.149-1.377-3.149-3.662
								c0-2.27,1.289-3.677,3.149-3.677c0.952,0,1.802,0.469,2.373,1.245v-1.069h1.098v6.87c0,2.344-1.641,3.076-3.369,3.076
								C206.237,477.326,205.417,477.092,204.582,476.272z M209.709,472.419v-3.091c-0.381-0.615-1.23-1.143-2.109-1.143
								c-1.421,0-2.27,1.128-2.27,2.695c0,1.553,0.849,2.695,2.27,2.695C208.478,473.576,209.328,473.034,209.709,472.419z"/>
							<path style="fill:#999999;" d="M217.413,474.455v-4.629c0-1.245-0.63-1.641-1.582-1.641c-0.865,0-1.685,0.527-2.095,1.099
								v5.17h-1.099v-7.075h1.099v1.025c0.498-0.586,1.464-1.201,2.519-1.201c1.48,0,2.256,0.747,2.256,2.285v4.966H217.413z"/>
							<path style="fill:#999999;" d="M219.932,470.91c0-2.051,1.465-3.706,3.486-3.706c2.139,0,3.398,1.67,3.398,3.794v0.279
								h-5.727c0.088,1.333,1.025,2.446,2.549,2.446c0.806,0,1.626-0.322,2.183-0.893l0.527,0.718
								c-0.703,0.703-1.655,1.084-2.812,1.084C221.441,474.631,219.932,473.122,219.932,470.91z M223.404,468.113
								c-1.509,0-2.256,1.274-2.314,2.358h4.643C225.718,469.416,225.015,468.113,223.404,468.113z"/>
							<path style="fill:#999999;" d="M233.35,474.455V473.4c-0.527,0.718-1.392,1.23-2.388,1.23c-1.846,0-3.149-1.406-3.149-3.706
								c0-2.256,1.289-3.721,3.149-3.721c0.952,0,1.817,0.469,2.388,1.245v-3.765h1.098v9.77H233.35z M233.35,472.536v-3.208
								c-0.396-0.615-1.245-1.143-2.124-1.143c-1.421,0-2.27,1.172-2.27,2.739c0,1.567,0.849,2.724,2.27,2.724
								C232.105,473.65,232.954,473.152,233.35,472.536z"/>
							<path style="fill:#999999;" d="M239.692,474.455v-9.77h1.098v3.765c0.572-0.776,1.421-1.245,2.388-1.245
								c1.845,0,3.149,1.465,3.149,3.721c0,2.299-1.304,3.706-3.149,3.706c-0.996,0-1.86-0.513-2.388-1.23v1.055H239.692z
								 M242.9,473.65c1.436,0,2.285-1.157,2.285-2.724c0-1.568-0.85-2.739-2.285-2.739c-0.864,0-1.728,0.527-2.109,1.143v3.208
								C241.171,473.152,242.036,473.65,242.9,473.65z"/>
							<path style="fill:#999999;" d="M247.528,476.228c0.161,0.073,0.425,0.117,0.601,0.117c0.483,0,0.805-0.161,1.055-0.747
								l0.469-1.069l-2.959-7.148h1.187l2.358,5.8l2.344-5.8h1.201l-3.545,8.51c-0.425,1.025-1.143,1.421-2.08,1.435
								c-0.234,0-0.601-0.044-0.805-0.103L247.528,476.228z"/>
						</g>
					</g>
				</g>
			</g>
		</g>
	</g>
</g>
</svg>
